<svg viewBox="0 0 542 470" fill="none" xmlns="http://www.w3.org/2000/svg">
<g id="talking" clip-path="url(#clip0)">
<path id="Vector" d="M146.525 0H326.881C332.996 0.006883 338.858 2.43824 343.182 6.76067C347.506 11.0831 349.939 16.9436 349.945 23.0564V121.69C349.939 127.803 347.506 133.663 343.182 137.986C338.858 142.308 332.996 144.739 326.881 144.746H146.525C140.41 144.739 134.547 142.308 130.223 137.986C125.899 133.663 123.467 127.803 123.46 121.69V23.0564C123.467 16.9436 125.899 11.0831 130.223 6.76067C134.547 2.43824 140.41 0.006883 146.525 0V0Z" fill="#F2F2F2"/>
<path id="Vector_2" d="M146.67 6.81152H326.736C331.083 6.81639 335.252 8.54322 338.326 11.6132C341.4 14.6831 343.129 18.8454 343.134 23.187V121.559C343.129 125.901 341.4 130.063 338.326 133.133C335.252 136.203 331.083 137.93 326.736 137.935H146.67C142.323 137.93 138.154 136.203 135.08 133.133C132.006 130.063 130.277 125.901 130.272 121.559V23.187C130.277 18.8455 132.006 14.6832 135.08 11.6132C138.154 8.54329 142.323 6.81644 146.67 6.81152Z" fill="white"/>
<path id="Vector_3" d="M148.04 179.656C147.49 179.654 146.945 179.544 146.438 179.333C145.68 179.029 145.032 178.505 144.578 177.829C144.125 177.152 143.887 176.355 143.895 175.541V141.179L189.873 139.638L150.927 178.443C150.55 178.826 150.101 179.13 149.605 179.338C149.11 179.546 148.578 179.654 148.04 179.656V179.656Z" fill="#F2F2F2"/>
<path id="Vector_4" d="M304.32 30.6521H168.235C162.786 30.6521 158.37 35.036 158.37 40.4438V40.4438C158.37 45.8516 162.786 50.2354 168.235 50.2354H304.32C309.768 50.2354 314.185 45.8516 314.185 40.4438C314.185 35.036 309.768 30.6521 304.32 30.6521Z" fill="#F2F2F2"/>
<path id="Vector_5" d="M304.32 63.0073H168.235C162.786 63.0073 158.37 67.2006 158.37 72.3733V72.3733C158.37 77.5459 162.786 81.7392 168.235 81.7392H304.32C309.768 81.7392 314.185 77.5459 314.185 72.3733C314.185 67.2006 309.768 63.0073 304.32 63.0073Z" fill="#F2F2F2"/>
<path id="Vector_6" d="M304.374 93.6594H169.033C163.614 93.6594 159.221 98.0433 159.221 103.451V103.451C159.221 108.859 163.614 113.243 169.033 113.243H304.374C309.792 113.243 314.185 108.859 314.185 103.451C314.185 98.0433 309.792 93.6594 304.374 93.6594Z" fill="#F2F2F2"/>
<path id="Vector_7" d="M430.758 50.2356H250.402C244.287 50.2425 238.424 52.6738 234.1 56.9963C229.776 61.3187 227.344 67.1792 227.337 73.292V171.926C227.344 178.038 229.776 183.899 234.1 188.221C238.424 192.544 244.287 194.975 250.402 194.982H430.758C436.873 194.975 442.735 192.544 447.059 188.221C451.383 183.899 453.816 178.038 453.822 171.926V73.292C453.816 67.1792 451.383 61.3187 447.059 56.9963C442.735 52.6738 436.873 50.2425 430.758 50.2356V50.2356Z" fill="#E0E0E0"/>
<path id="Vector_8" d="M430.613 56.1956H250.547C246.199 56.2005 242.031 57.9385 238.957 61.0284C235.883 64.1182 234.153 68.3076 234.148 72.6774V171.688C234.153 176.058 235.883 180.248 238.957 183.337C242.031 186.427 246.199 188.165 250.547 188.17H430.613C434.96 188.165 439.128 186.427 442.202 183.337C445.277 180.247 447.006 176.058 447.011 171.688V72.6774C447.006 68.3076 445.277 64.1183 442.202 61.0284C439.128 57.9386 434.96 56.2005 430.613 56.1956Z" fill="white"/>
<path id="Vector_9" d="M416.99 228.705L378.043 190.725L424.021 192.233V225.864C424.03 226.661 423.792 227.441 423.338 228.103C422.884 228.765 422.236 229.278 421.478 229.575C420.971 229.782 420.426 229.89 419.876 229.891C419.338 229.89 418.806 229.784 418.311 229.58C417.815 229.376 417.366 229.079 416.99 228.705V228.705Z" fill="#E0E0E0"/>
<path id="Vector_10" d="M300.987 135.38C307.806 135.38 313.333 129.662 313.333 122.609C313.333 115.555 307.806 109.837 300.987 109.837C294.169 109.837 288.641 115.555 288.641 122.609C288.641 129.662 294.169 135.38 300.987 135.38Z" fill="#28C1EA"/>
<path id="Vector_11" d="M341.005 135.38C347.824 135.38 353.351 129.662 353.351 122.609C353.351 115.555 347.824 109.837 341.005 109.837C334.187 109.837 328.659 115.555 328.659 122.609C328.659 129.662 334.187 135.38 341.005 135.38Z" fill="#28C1EA"/>
<path id="Vector_12" d="M380.172 135.38C386.991 135.38 392.518 129.662 392.518 122.609C392.518 115.555 386.991 109.837 380.172 109.837C373.354 109.837 367.826 115.555 367.826 122.609C367.826 129.662 373.354 135.38 380.172 135.38Z" fill="#28C1EA"/>
<path id="Vector_13" d="M214.394 255.363C214.212 254.608 213.881 253.896 213.419 253.269C212.958 252.641 212.375 252.111 211.705 251.708L203.039 246.473L162.392 221.909L122.083 197.552C121.05 196.925 119.848 196.626 118.638 196.694H118.62C118.264 196.714 117.91 196.765 117.563 196.848C117.04 196.973 116.536 197.17 116.068 197.434C115.747 197.6 115.448 197.803 115.175 198.039C114.657 198.454 114.216 198.954 113.872 199.519L107.411 210.005L107.31 210.168C106.9 210.829 106.626 211.564 106.504 212.331C106.381 213.098 106.414 213.881 106.599 214.635C106.747 215.233 106.987 215.805 107.31 216.332C107.801 217.138 108.483 217.813 109.297 218.299L109.324 218.317L148.859 242.205L149.433 242.548L198.919 272.455C200.273 273.268 201.896 273.518 203.435 273.149C204.973 272.78 206.302 271.823 207.13 270.488L213.692 259.839C214.102 259.175 214.374 258.438 214.495 257.67C214.615 256.902 214.581 256.118 214.394 255.363V255.363Z" fill="#28C1EA"/>
<path id="Vector_14" d="M162.527 219.19C162.391 218.405 162.1 217.655 161.67 216.986C161.241 216.316 160.681 215.741 160.025 215.294L129.635 197.818C126.28 195.884 122.31 195.338 118.562 196.292H118.544C117.712 196.511 116.9 196.8 116.116 197.156C115.769 197.303 115.431 197.478 115.093 197.661C112.883 198.869 111.011 200.619 109.651 202.749C108.292 204.879 107.488 207.32 107.316 209.845C107.121 212.794 107.788 215.736 109.233 218.308C110.135 219.91 111.324 221.33 112.738 222.498L139.933 244.983C140.578 245.437 141.305 245.758 142.074 245.929C142.843 246.099 143.637 246.114 144.412 245.974C145.186 245.834 145.926 245.541 146.587 245.112C147.249 244.684 147.82 244.128 148.267 243.476L148.834 242.63L149.08 242.263L161.55 223.693C161.798 223.343 162.006 222.967 162.171 222.572C162.253 222.37 162.326 222.167 162.39 221.965C162.65 221.064 162.697 220.113 162.527 219.19V219.19Z" fill="#334556"/>
<path id="Vector_15" d="M88.1248 176.25C113.283 176.25 133.677 155.856 133.677 130.698C133.677 105.54 113.283 85.145 88.1248 85.145C62.9668 85.145 42.5723 105.54 42.5723 130.698C42.5723 155.856 62.9668 176.25 88.1248 176.25Z" fill="#28C1EA"/>
<path id="Vector_16" d="M87.6534 291.196H74.9727C73.3797 291.2 71.8534 291.83 70.7278 292.948C69.6023 294.066 68.9692 295.58 68.9673 297.159V401.89C68.9696 403.469 69.603 404.982 70.7288 406.098C71.8545 407.214 73.3807 407.842 74.9727 407.844H87.6534C89.2456 407.842 90.7718 407.214 91.8976 406.098C93.0235 404.982 93.657 403.469 93.6593 401.89V297.159C93.6573 295.58 93.0242 294.065 91.8986 292.948C90.7729 291.83 89.2465 291.2 87.6534 291.196V291.196Z" fill="#28C1EA"/>
<path id="Vector_17" d="M114.891 291.196H102.219C100.626 291.2 99.1 291.83 97.9745 292.948C96.8489 294.066 96.2158 295.58 96.2139 297.159V401.89C96.2162 403.469 96.8496 404.982 97.9754 406.098C99.1012 407.214 100.627 407.842 102.219 407.844H114.891C116.484 407.844 118.013 407.217 119.14 406.1C120.268 404.984 120.903 403.47 120.906 401.89V297.159C120.903 295.578 120.269 294.063 119.141 292.945C118.014 291.827 116.485 291.198 114.891 291.196V291.196Z" fill="#28C1EA"/>
<path id="Vector_18" d="M160.924 286.256C160.924 323.468 125.758 335.471 88.3738 335.471C50.9896 335.471 25.5435 323.468 25.5435 286.256C25.5435 249.044 50.7084 185.616 88.0927 185.616C125.477 185.616 160.924 249.044 160.924 286.256Z" fill="#334556"/>
<path id="Vector_19" d="M86.8956 147.301L86.8477 145.6C90.048 145.512 92.8696 145.314 94.9898 143.783C95.5908 143.324 96.0849 142.743 96.4384 142.078C96.7918 141.414 96.9964 140.682 97.0381 139.932C97.0753 139.474 97.0052 139.014 96.8333 138.587C96.6613 138.16 96.3921 137.778 96.0465 137.471C94.6391 136.296 92.3744 136.677 90.7238 137.425L89.3005 138.07L92.03 118.352L93.7344 118.582L91.4126 135.355C92.363 135.007 93.3866 134.899 94.3899 135.042C95.3933 135.184 96.3445 135.573 97.1569 136.172C97.7035 136.644 98.1323 137.234 98.4099 137.897C98.6874 138.56 98.8063 139.277 98.7571 139.992C98.7069 140.999 98.4345 141.983 97.959 142.875C97.4835 143.767 96.8164 144.546 96.0045 145.156C93.2803 147.124 89.7402 147.222 86.8956 147.301Z" fill="#334556"/>
<path id="Vector_20" d="M111.54 120.054H102.174V121.757H111.54V120.054Z" fill="#334556"/>
<path id="Vector_21" d="M82.5906 120.054H73.2246V121.757H82.5906V120.054Z" fill="#334556"/>
<path id="Vector_22" d="M51.5652 118.138C55.1104 112.799 61.3485 110.536 67.4999 109.985C74.4239 109.366 81.1142 110.701 87.8743 111.999C95.3141 113.427 103.188 114.764 110.685 112.958C114.001 112.191 117.1 110.68 119.748 108.54C122.395 106.4 124.523 103.687 125.97 100.604C128.715 94.5907 129.306 87.815 127.645 81.4164C125.888 74.6112 121.528 68.6233 116.242 64.1007C105.453 54.8698 90.8531 50.7213 76.8105 51.1121C62.8211 51.4733 49.3 56.2296 38.1631 64.7071C27.0077 73.4905 19.1577 85.7976 15.8945 99.6194C12.4822 113.328 13.5938 127.773 19.0632 140.797C22.1362 147.928 26.5804 154.358 30.0098 161.31C33.2028 167.783 35.6618 175.308 33.6751 182.528C31.9318 188.863 26.8137 194.491 20.3883 196.211C17.465 196.979 14.3716 196.776 11.5735 195.633C8.77537 194.49 6.42382 192.469 4.87252 189.874C1.66052 184.807 1.58366 178.171 6.40631 174.079C7.62224 173.031 9.03867 172.241 10.5694 171.757C12.1002 171.273 13.7133 171.106 15.3107 171.265C16.9081 171.425 18.4564 171.908 19.8614 172.684C21.2664 173.461 22.4988 174.516 23.4837 175.784C25.4402 178.327 26.316 181.538 25.9211 184.722C25.6835 186.331 28.1452 187.026 28.385 185.402C28.9605 182.034 28.3223 178.572 26.5841 175.631C24.846 172.691 22.1208 170.463 18.8941 169.345C15.6673 168.227 12.1487 168.292 8.96502 169.527C5.78135 170.762 3.13945 173.088 1.51001 176.091C-1.3983 181.561 0.170895 188.159 3.86272 192.835C5.76751 195.326 8.34926 197.215 11.2991 198.276C14.2489 199.337 17.4419 199.526 20.496 198.819C27.2161 197.267 32.7135 191.923 35.2988 185.644C38.177 178.653 36.8583 170.852 34.0525 164.069C31.0196 156.736 26.5157 150.16 22.9539 143.094C19.7288 136.708 17.6766 129.795 16.8949 122.683C15.3304 108.403 18.5702 94.0077 26.1017 81.7758C33.7782 69.7339 45.4952 60.825 59.1479 56.6497C72.7015 52.2928 87.3337 52.6799 100.638 57.7473C113.622 62.8653 126.159 74.0188 126.009 88.9987C125.944 95.3976 123.57 101.923 118.671 106.191C112.816 111.292 104.663 111.728 97.3033 110.932C89.8965 110.131 82.7038 107.967 75.265 107.415C68.7948 106.934 61.8144 107.434 56.0373 110.65C53.3469 112.151 51.0565 114.276 49.3588 116.848C48.4463 118.222 50.6585 119.504 51.5652 118.138L51.5652 118.138Z" fill="#334556"/>
<path id="Vector_23" d="M59.2926 218.892C58.8323 218.259 58.2512 217.724 57.5832 217.318C56.9151 216.911 56.1733 216.642 55.4008 216.526L47.3356 215.297L42.9993 214.632C41.627 214.424 40.2252 214.704 39.0371 215.424C37.8489 216.144 36.9493 217.258 36.4943 218.574C36.3727 218.919 36.2847 219.276 36.2316 219.639L30.9877 254.211L30.5793 256.887L26.3064 285.077L20.5004 323.308C20.2667 324.873 20.6606 326.468 21.5957 327.742C22.5309 329.016 23.9312 329.867 25.49 330.108L37.8825 332.001C39.4417 332.231 41.0283 331.834 42.2973 330.897C43.5663 329.959 44.4151 328.557 44.6591 326.995L44.8314 325.83L54.6202 261.32L60.381 223.325C60.5027 222.551 60.4692 221.76 60.2823 220.999C60.0954 220.238 59.7589 219.521 59.2926 218.892V218.892Z" fill="#28C1EA"/>
<path id="Vector_24" d="M53.6199 206.008C52.8795 205.751 52.1187 205.556 51.3454 205.424C47.6958 204.792 43.9379 205.502 40.7835 207.419C37.6292 209.336 35.2976 212.327 34.2307 215.825L33.6298 217.785L23.977 249.481C23.6381 251.031 23.9376 252.651 24.8096 253.985C25.6817 255.318 27.0549 256.255 28.6276 256.591L29.7373 256.81L30.0145 256.864L52.1869 261.258C52.6091 261.349 53.0398 261.394 53.4718 261.395C53.8222 261.397 54.1719 261.366 54.5165 261.304C55.7104 261.096 56.8138 260.541 57.6841 259.709C58.5544 258.877 59.1517 257.807 59.3987 256.636L63.7445 221.951C64.171 218.551 63.3974 215.111 61.5536 212.207C59.7097 209.304 56.9082 207.114 53.6199 206.008V206.008Z" fill="#334556"/>
<path id="Vector_25" d="M491.918 470H477.884C476.245 469.998 474.674 469.355 473.515 468.21C472.357 467.066 471.705 465.515 471.703 463.897V348.386C471.705 346.768 472.357 345.217 473.515 344.072C474.674 342.928 476.245 342.285 477.884 342.283H491.918C493.556 342.285 495.127 342.928 496.286 344.072C497.444 345.217 498.096 346.768 498.098 348.386V463.897C498.096 465.515 497.444 467.066 496.286 468.21C495.127 469.355 493.556 469.998 491.918 470Z" fill="#28C1EA"/>
<path id="Vector_26" d="M464.018 470H450.437C448.851 469.998 447.331 469.355 446.21 468.21C445.089 467.066 444.458 465.515 444.456 463.897V348.386C444.458 346.768 445.089 345.217 446.21 344.072C447.331 342.928 448.851 342.285 450.437 342.283H464.018C465.604 342.285 467.124 342.928 468.246 344.072C469.367 345.217 469.998 346.768 470 348.386V463.897C469.998 465.515 469.367 467.066 468.246 468.21C467.124 469.355 465.604 469.998 464.018 470Z" fill="#28C1EA"/>
<path id="Vector_27" d="M470.425 221.377C496.994 221.377 518.532 199.839 518.532 173.27C518.532 146.701 496.994 125.163 470.425 125.163C443.857 125.163 422.318 146.701 422.318 173.27C422.318 199.839 443.857 221.377 470.425 221.377Z" fill="#28C1EA"/>
<path id="Vector_28" d="M429.079 184.764C426.032 184.677 422.24 184.568 419.319 182.368C418.449 181.686 417.735 180.816 417.225 179.819C416.716 178.822 416.424 177.722 416.37 176.597C416.317 175.797 416.444 174.995 416.742 174.255C417.039 173.514 417.499 172.854 418.085 172.327C419.61 170.997 421.838 170.686 424.239 171.413L421.752 152.667L423.578 152.409L426.502 174.447L424.977 173.726C423.209 172.89 420.782 172.464 419.274 173.778C418.904 174.122 418.616 174.549 418.431 175.026C418.247 175.503 418.172 176.018 418.212 176.53C418.257 177.368 418.476 178.185 418.855 178.928C419.233 179.67 419.763 180.32 420.407 180.833C422.68 182.545 425.702 182.766 429.13 182.865L429.079 184.764Z" fill="#334556"/>
<path id="Vector_29" d="M444.457 154.112H434.239V156.667H444.457V154.112Z" fill="#334556"/>
<path id="Vector_30" d="M462.927 167.379C465.119 166.468 467.025 164.982 468.444 163.077C469.862 161.173 470.741 158.92 470.987 156.557C471.173 154.132 470.742 151.699 469.735 149.486C468.727 147.273 467.176 145.351 465.226 143.899C457.023 137.703 445.711 141.624 437.122 136.517C435.13 135.336 433.58 133.534 432.71 131.387C431.839 129.24 431.696 126.866 432.302 124.63C433.483 119.551 437.325 115.843 441.697 113.298C450.341 108.265 460.863 106.388 470.764 106.754C491.125 107.507 509.882 118.087 522.044 134.276C527.982 142.227 532.462 151.171 535.273 160.69C538.183 170.463 539.794 181.164 537.95 191.292C537.205 196.048 535.445 200.588 532.788 204.602C530.131 208.616 526.641 212.009 522.555 214.55C514.746 219.64 505.587 222.25 496.547 224.141C494.293 224.613 492.029 225.035 489.761 225.433C487.971 225.747 488.73 228.476 490.513 228.163C508.723 224.967 530.167 219.317 538.135 200.577C542.424 190.492 542.118 179.073 540.089 168.493C538.179 158.491 534.551 148.897 529.366 140.136C518.783 122.335 501.557 109.011 481.041 105.099C470.807 103.064 460.23 103.576 450.239 106.589C440.804 109.535 430.089 115.405 429.183 126.417C428.965 128.856 429.433 131.307 430.534 133.494C431.635 135.68 433.325 137.515 435.413 138.791C439.505 141.336 444.438 141.958 449.138 142.37C454.205 142.813 460.013 143.117 464.076 146.581C467.861 149.807 469.448 155.398 467.105 159.931C466.061 162.03 464.317 163.699 462.175 164.649C461.82 164.76 461.521 165.001 461.337 165.325C461.154 165.648 461.1 166.029 461.187 166.391C461.288 166.752 461.528 167.058 461.854 167.243C462.18 167.428 462.565 167.477 462.927 167.379H462.927Z" fill="#334556"/>
<path id="Vector_31" d="M512.009 247.756L511.811 247.402C511.329 246.538 510.627 245.814 509.776 245.303C508.925 244.793 507.955 244.512 506.961 244.491L482.001 243.947V240.662C482.001 239.918 481.854 239.182 481.568 238.495C481.282 237.808 480.862 237.184 480.334 236.658C479.806 236.133 479.178 235.716 478.488 235.431C477.797 235.146 477.057 235 476.31 235H461.135C459.625 235 458.178 235.597 457.111 236.658C456.043 237.72 455.444 239.16 455.444 240.662V243.368L432.816 242.874C431.815 242.852 430.826 243.094 429.948 243.574C429.071 244.055 428.336 244.757 427.819 245.61V245.61C415.724 265.558 409.135 288.328 408.717 311.621C408.298 334.914 414.065 357.904 425.436 378.269L425.634 378.623C426.116 379.487 426.818 380.211 427.669 380.722C428.519 381.232 429.49 381.512 430.483 381.534L504.628 383.151C505.629 383.173 506.619 382.931 507.496 382.451C508.374 381.97 509.108 381.268 509.625 380.415V380.415C521.72 360.467 528.31 337.697 528.728 314.404C529.147 291.111 523.38 268.121 512.009 247.756Z" fill="#334556"/>
<path id="Vector_32" d="M350.154 326.257L343.952 313.796C343.284 312.453 343.176 310.898 343.653 309.476C344.13 308.053 345.153 306.878 346.497 306.209L444.123 257.617C447.119 256.126 450.585 255.886 453.758 256.95C456.93 258.014 459.551 260.295 461.042 263.291V263.291C462.533 266.287 462.773 269.752 461.709 272.925C460.645 276.098 458.364 278.718 455.368 280.21L357.741 328.801C356.398 329.47 354.844 329.578 353.421 329.101C351.998 328.623 350.823 327.601 350.154 326.257V326.257Z" fill="#28C1EA"/>
<path id="Vector_33" d="M385.535 279.288C382.348 278.766 379.483 281.834 379.002 285.019C378.522 288.205 379.738 291.375 380.931 294.368C383.051 299.686 385.221 305.09 388.8 309.563C392.379 314.036 397.64 317.521 403.376 317.59C408.835 317.655 413.818 314.714 418.473 311.869L462.139 285.176C466.759 282.352 471.694 279.153 473.519 274.064C474.583 270.667 474.494 267.015 473.268 263.672C471.489 258.63 468.142 254.286 463.715 251.276C459.287 248.265 454.011 246.745 448.656 246.937C436.275 247.655 426.614 257.277 416.493 264.429C406.462 271.507 395.103 276.497 383.096 279.098" fill="#334556"/>
</g>
<defs>
<clipPath id="clip0">
<rect width="541.522" height="470" fill="white"/>
</clipPath>
</defs>
</svg>
